<svg t="1709730478367" class="icon" viewBox="0 0 1024 1024" version="1.1" xmlns="http://www.w3.org/2000/svg" p-id="7091" xmlns:xlink="http://www.w3.org/1999/xlink"><path d="M512 783.945143a261.997714 261.997714 0 0 0 192.292571-79.725714A261.997714 261.997714 0 0 0 783.945143 512a261.997714 261.997714 0 0 0-79.725714-192.292571A261.997714 261.997714 0 0 0 512 240.054857c-36.790857 0-74.386286 8.484571-112.64 25.526857 46.811429 21.211429 84.699429 54.125714 113.737143 98.742857 28.964571 44.617143 43.52 93.842286 43.52 147.675429 0 53.833143-14.555429 103.058286-43.52 147.675429a263.899429 263.899429 0 0 1-113.664 98.742857A275.894857 275.894857 0 0 0 512 783.945143z m363.300571-422.765714L1024 512l-148.699429 150.820571v212.48H662.820571L512 1024l-150.820571-148.699429H148.699429V662.820571L0 512l148.699429-150.820571V148.699429h212.48L512 0l150.820571 148.699429h212.48v212.48z" p-id="7092"></path></svg>