<svg t="1710502757134" class="icon" viewBox="0 0 1024 1024" version="1.1" xmlns="http://www.w3.org/2000/svg" p-id="12271" xmlns:xlink="http://www.w3.org/1999/xlink"><path d="M550.912 457.728c0-25.6-20.48-45.056-46.08-46.08H264.192v-99.328L43.008 457.728l220.16 145.408v-99.328h241.664c25.6-1.024 46.08-20.48 46.08-46.08z" fill="#e22" p-id="12272"></path><path d="M977.92 752.64l-1.024-628.736c0-27.648-12.288-45.056-27.648-36.864l-6.144 3.072c-8.192-7.168-18.432-12.288-30.72-12.288H363.52c-24.576 0-44.032 19.456-44.032 44.032v200.704H419.84V203.776c0-24.576 19.456-44.032 44.032-44.032h338.944l-146.432 71.68c-19.456 15.36-29.696 39.936-27.648 64.512l1.024 449.536H463.872c-24.576 0-44.032-19.456-44.032-44.032V604.16h-100.352v171.008c0 24.576 19.456 44.032 44.032 44.032h266.24v105.472c0 27.648 12.288 45.056 27.648 36.864l292.864-144.384c18.432-15.36 28.672-39.936 27.648-64.512z" fill="#e22" p-id="12273"></path></svg>