<svg class="icon" viewBox="0 0 1024 1024" version="1.1" xmlns="http://www.w3.org/2000/svg" p-id="5081" xmlns:xlink="http://www.w3.org/1999/xlink"><path d="M502.518519 246.518519a256 256 0 1 0 0 512 256 256 0 0 0 0-512z m0 94.814814a161.185185 161.185185 0 1 1 0 322.370371 161.185185 161.185185 0 0 1 0-322.370371zM512 9.481481a48.545185 48.545185 0 0 1 48.279704 43.538963l0.227555 4.968297v72.628148a48.545185 48.545185 0 0 1-96.786963 4.968296l-0.227555-4.93037V57.950815C463.454815 31.213037 485.224296 9.481481 512 9.481481zM867.365926 156.634074a48.545185 48.545185 0 0 1 3.299555 64.967111l-3.337481 3.678815-51.351704 51.351704a48.545185 48.545185 0 0 1-71.945481-64.929185l3.337481-3.678815 51.351704-51.351704c18.962963-18.962963 49.682963-18.962963 68.645926 0zM1014.518519 512a48.545185 48.545185 0 0 1-43.538963 48.279704l-4.968297 0.227555h-72.628148a48.545185 48.545185 0 0 1-4.968296-96.786963l4.93037-0.227555h72.666074c26.775704 0 48.507259 21.731556 48.50726 48.507259zM867.365926 867.365926a48.545185 48.545185 0 0 1-64.967111 3.299555l-3.678815-3.337481-51.351704-51.351704a48.545185 48.545185 0 0 1 64.929185-71.945481l3.678815 3.337481 51.351704 51.351704c18.962963 18.962963 18.962963 49.682963 0 68.645926zM512 1014.518519a48.545185 48.545185 0 0 1-48.279704-43.538963l-0.227555-4.968297v-72.628148a48.545185 48.545185 0 0 1 96.786963-4.968296l0.227555 4.93037v72.666074A48.545185 48.545185 0 0 1 512 1014.518519zM156.634074 867.365926a48.545185 48.545185 0 0 1-3.299555-64.967111l3.337481-3.678815 51.351704-51.351704a48.545185 48.545185 0 0 1 71.945481 64.929185l-3.337481 3.678815-51.351704 51.351704c-18.962963 18.962963-49.682963 18.962963-68.645926 0zM9.481481 512a48.545185 48.545185 0 0 1 43.538963-48.279704l4.968297-0.227555h100.882963a48.545185 48.545185 0 0 1 4.968296 96.786963l-4.93037 0.227555H58.026667A48.545185 48.545185 0 0 1 9.481481 512zM156.634074 156.634074a48.545185 48.545185 0 0 1 64.967111-3.299555l3.678815 3.337481 51.351704 51.351704a48.545185 48.545185 0 0 1-64.929185 71.945481l-3.678815-3.337481L156.672 225.28c-18.962963-18.962963-18.962963-49.682963 0-68.645926z" p-id="5082"></path></svg>