<svg t="1710294907631" class="icon" viewBox="0 0 1024 1024" version="1.1" xmlns="http://www.w3.org/2000/svg" p-id="42516" xmlns:xlink="http://www.w3.org/1999/xlink" fill="#9ca3af"><path d="M874.7 880.5c21.5 0 38.7 17.6 38.7 39.4 0.1 10.3-4 20.3-11.2 27.6-7.3 7.4-17.2 11.5-27.5 11.6H147.1c-10.3-0.1-20.2-4.2-27.5-11.6-7.3-7.4-11.3-17.3-11.2-27.6 0-21.7 17.4-39.2 38.7-39.2h50.5V779.5c0-1.7 0.2-3.4 0.4-5.1 4.2-109.3 129.5-204.2 216.3-257.5-87-53.4-212.2-148.6-216.4-258.1-0.2-1.5-0.3-2.9-0.3-4.4V143h-50.5c-10.3-0.1-20.2-4.2-27.5-11.6-7.3-7.4-11.3-17.3-11.2-27.6 0-21.7 17.4-39.2 38.7-39.2h727.6c21.5 0 38.7 17.6 38.7 39.2 0.1 10.3-4 20.3-11.2 27.6-7.3 7.4-17.2 11.5-27.5 11.6H821v111.3c0 1.5-0.1 2.9-0.3 4.4-4.2 109.5-119.9 204.7-206.9 258 87.5 53.7 203.5 149.7 206.9 260 0.1 1 0.1 1.8 0.1 2.8v0.4c0.1 2.3 0.1 4.7 0.1 7.2v93.5l53.8-0.1z m-137.4-48.8c0.1-21.5-17.2-39-38.7-39.2H319.4c-10.3 0.1-20.2 4.2-27.5 11.6-7.3 7.4-11.3 17.3-11.2 27.6 0 21.7 17.4 39.2 38.7 39.2h379.2c21.4 0 38.7-17.6 38.7-39.2zM509 563.6c-21.5 0.1-38.8 17.7-38.7 39.2v76.6c0 21.7 17.4 39.2 38.7 39.2 21.4 0 38.7-17.6 38.7-39.2v-76.5c0.1-10.3-4-20.3-11.2-27.7-7.3-7.3-17.2-11.5-27.5-11.6z m0-170.3c-21.5 0.2-38.8 17.7-38.7 39.2 0 21.7 17.4 39.2 38.7 39.2 21.4 0 38.7-17.6 38.7-39.2 0.1-10.3-4-20.3-11.2-27.6-7.3-7.4-17.2-11.6-27.5-11.6z m0 0" p-id="42517"></path></svg>