<?xml version="1.0" standalone="no"?><!DOCTYPE svg PUBLIC "-//W3C//DTD SVG 1.1//EN" "http://www.w3.org/Graphics/SVG/1.1/DTD/svg11.dtd"><svg t="1709865922287" class="icon" viewBox="0 0 1024 1024" version="1.1" xmlns="http://www.w3.org/2000/svg" p-id="8605" xmlns:xlink="http://www.w3.org/1999/xlink" width="300" height="300"><path d="M270.337024 7.9872a27.136 27.136 0 0 1 38.4 0l140.288 140.5952h123.136l140.288-140.5952a27.136 27.136 0 0 1 38.4 0l6.4512 6.4a27.2896 27.2896 0 0 1 0 38.5536l-95.4368 95.6416h217.1392A145.152 145.152 0 0 1 1024.001024 293.9904v472.32a145.152 145.152 0 0 1-144.9984 145.3568h-55.0912a54.4256 54.4256 0 0 1-53.6064 63.5904 54.4256 54.4256 0 0 1-53.6576-63.5904H307.354624a54.4256 54.4256 0 0 1-53.6064 63.5904 54.4256 54.4256 0 0 1-53.6576-63.5904H144.999424A145.152 145.152 0 0 1 0.001024 766.3104V293.9392a145.152 145.152 0 0 1 144.9984-145.3568h214.3232L263.885824 52.9408a27.2896 27.2896 0 0 1 0-38.5536L270.337024 7.9872zM185.345024 429.6704l18.2784 80.2304 211.6608-40.96-16.128-80.2304-213.8624 40.96z m646.8608 80.2304l17.7664-80.2304-213.2992-40.96-16.6912 80.2816 212.224 40.96z m-455.0144 139.008s68.9152 94.208 134.656 22.6304c77.568 71.6288 136.8064-23.1936 136.8064-23.1936l-31.744-20.48-0.512 0.5632c-5.376 6.8608-57.6512 73.472-105.1136-29.6448-52.224 112.0768-99.072 27.4944-99.072 27.4944l-35.0208 22.6304z" fill="#fb6464" p-id="8606"></path></svg>