<svg t="1710294471386" class="icon" viewBox="0 0 1024 1024" version="1.1" xmlns="http://www.w3.org/2000/svg" p-id="8531" xmlns:xlink="http://www.w3.org/1999/xlink" fill="#9ca3af"><path d="M711.111 227.556h142.222A28.444 28.444 0 0 1 881.778 256v540.444a28.444 28.444 0 0 1-28.445 28.445H711.111a28.444 28.444 0 0 1-28.444-28.445V256a28.444 28.444 0 0 1 28.444-28.444zM443.08 369.778h142.222a28.444 28.444 0 0 1 28.445 28.444v398.222A28.444 28.444 0 0 1 585.3 824.89H443.08a28.444 28.444 0 0 1-28.444-28.445V398.222a28.444 28.444 0 0 1 28.444-28.444zM170.667 85.333h142.222a28.444 28.444 0 0 1 28.444 28.445v682.666a28.444 28.444 0 0 1-28.444 28.445H170.667a28.444 28.444 0 0 1-28.445-28.445V113.778a28.444 28.444 0 0 1 28.445-28.445z m-56.89 853.334a28.444 28.444 0 0 1 0-56.89h824.89a28.444 28.444 0 0 1 0 56.89h-824.89z" p-id="8532"></path></svg>